<?xml version="1.0" encoding="UTF-8"?>
<COLLADA xmlns="http://www.collada.org/2005/11/COLLADASchema" version="1.4.1">
	<asset>
		<contributor>
			<author>Dedric Mauriac</author>
			<authoring_tool>Firestorm-Releasex64 6.6.17.70368</authoring_tool>
		</contributor>
		<created>2024-04-19T18:45:34</created>
		<modified>2024-04-19T18:45:34</modified>
		<unit/>
		<up_axis>Z_UP</up_axis>
	</asset>
	<library_images/>
	<library_geometries>
		<geometry id="prim0-mesh">
			<mesh>
				<source id="prim0-positions">
					<float_array id="prim0-positions-array" count="867">-0.00196075 -0.00196075 -0.5 -0.00196075 -0.00196075 -0.5 -0.00196075 -0.00196075 -0.5 -0.00196075 -0.00196075 -0.5 -0.00196075 -0.00196075 -0.5 -0.00196075 -0.00196075 -0.5 -0.00196075 -0.00196075 -0.5 -0.00196075 -0.00196075 -0.5 -0.00196075 -0.00196075 -0.5 -0.00196075 -0.00196075 -0.5 -0.00196075 -0.00196075 -0.5 -0.00196075 -0.00196075 -0.5 -0.00196075 -0.00196075 -0.5 -0.00196075 -0.00196075 -0.5 -0.00196075 -0.00196075 -0.5 -0.00196075 -0.00196075 -0.5 -0.00196075 -0.00196075 -0.5 0.123529 0.123529 -0.5 0.0607843 0.123529 -0.5 -0.00196075 0.123529 -0.5 -0.0647058 0.123529 -0.5 -0.127451 0.119608 -0.5 -0.127451 0.0607843 -0.5 -0.127451 -0.00196075 -0.5 -0.127451 -0.0647058 -0.5 -0.127451 -0.127451 -0.5 -0.0647058 -0.127451 -0.5 -0.00196075 -0.127451 -0.5 0.0607843 -0.127451 -0.5 0.123529 -0.127451 -0.5 0.123529 -0.0647058 -0.5 0.123529 -0.00196075 -0.5 0.123529 0.0607843 -0.5 0.123529 0.123529 -0.5 0.24902 0.24902 -0.5 0.123529 0.24902 -0.5 -0.00196075 0.24902 -0.5 -0.127451 0.24902 -0.5 -0.252941 0.245098 -0.5 -0.252941 0.123529 -0.5 -0.252941 -0.00196075 -0.5 -0.252941 -0.127451 -0.5 -0.252941 -0.252941 -0.5 -0.127451 -0.252941 -0.5 -0.00196075 -0.252941 -0.5 0.123529 -0.252941 -0.5 0.24902 -0.252941 -0.5 0.24902 -0.127451 -0.5 0.24902 -0.00196075 -0.5 0.24902 0.123529 -0.5 0.24902 0.24902 -0.5 0.370588 0.370588 -0.5 0.186275 0.370588 -0.5 -0.00196075 0.370588 -0.5 -0.190196 0.370588 -0.5 -0.378431 0.370588 -0.5 -0.378431 0.186275 -0.5 -0.378431 -0.00196075 -0.5 -0.378431 -0.190196 -0.5 -0.378431 -0.378431 -0.5 -0.190196 -0.378431 -0.5 -0.00196075 -0.378431 -0.5 0.186275 -0.378431 -0.5 0.370588 -0.378431 -0.5 0.370588 -0.190196 -0.5 0.370588 -0.00196075 -0.5 0.370588 0.186275 -0.5 0.370588 0.370588 -0.5 0.496078 0.496078 -0.5 0.245098 0.496078 -0.5 -0.00196075 0.496078 -0.5 -0.252941 0.496078 -0.5 -0.5 0.496078 -0.5 -0.5 0.245098 -0.5 -0.5 -0.00196075 -0.5 -0.5 -0.252941 -0.5 -0.5 -0.5 -0.5 -0.252941 -0.5 -0.5 -0.00196075 -0.5 -0.5 0.245098 -0.5 -0.5 0.496078 -0.5 -0.5 0.496078 -0.252941 -0.5 0.496078 -0.00196075 -0.5 0.496078 0.245098 -0.5 0.496078 0.496078 -0.5 0.496078 0.496078 -0.378431 0.245098 0.496078 -0.378431 -0.00196075 0.496078 -0.378431 -0.252941 0.496078 -0.378431 -0.5 0.496078 -0.378431 -0.5 0.245098 -0.378431 -0.5 -0.00196075 -0.378431 -0.5 -0.252941 -0.378431 -0.5 -0.5 -0.378431 -0.252941 -0.5 -0.378431 -0.00196075 -0.5 -0.378431 0.245098 -0.5 -0.378431 0.496078 -0.5 -0.378431 0.496078 -0.252941 -0.378431 0.496078 -0.00196075 -0.378431 0.496078 0.245098 -0.378431 0.496078 0.496078 -0.378431 0.496078 0.496078 -0.252941 0.245098 0.496078 -0.252941 -0.00196075 0.496078 -0.252941 -0.252941 0.496078 -0.252941 -0.5 0.496078 -0.252941 -0.5 0.245098 -0.252941 -0.5 -0.00196075 -0.252941 -0.5 -0.252941 -0.252941 -0.5 -0.5 -0.252941 -0.252941 -0.5 -0.252941 -0.00196075 -0.5 -0.252941 0.245098 -0.5 -0.252941 0.496078 -0.5 -0.252941 0.496078 -0.252941 -0.252941 0.496078 -0.00196075 -0.252941 0.496078 0.245098 -0.252941 0.496078 0.496078 -0.252941 0.496078 0.496078 -0.127451 0.245098 0.496078 -0.127451 -0.00196075 0.496078 -0.127451 -0.252941 0.496078 -0.127451 -0.5 0.496078 -0.127451 -0.5 0.245098 -0.127451 -0.5 -0.00196075 -0.127451 -0.5 -0.252941 -0.127451 -0.5 -0.5 -0.127451 -0.252941 -0.5 -0.127451 -0.00196075 -0.5 -0.127451 0.245098 -0.5 -0.127451 0.496078 -0.5 -0.127451 0.496078 -0.252941 -0.127451 0.496078 -0.00196075 -0.127451 0.496078 0.245098 -0.127451 0.496078 0.496078 -0.127451 0.496078 0.496078 -0.00196075 0.245098 0.496078 -0.00196075 -0.00196075 0.496078 -0.00196075 -0.252941 0.496078 -0.00196075 -0.5 0.496078 -0.00196075 -0.5 0.245098 -0.00196075 -0.5 -0.00196075 -0.00196075 -0.5 -0.252941 -0.00196075 -0.5 -0.5 -0.00196075 -0.252941 -0.5 -0.00196075 -0.00196075 -0.5 -0.00196075 0.245098 -0.5 -0.00196075 0.496078 -0.5 -0.00196075 0.496078 -0.252941 -0.00196075 0.496078 -0.00196075 -0.00196075 0.496078 0.245098 -0.00196075 0.496078 0.496078 -0.00196075 0.496078 0.496078 0.0882353 0.245098 0.496078 0.0882353 -0.00196075 0.496078 0.0882353 -0.252941 0.496078 0.0882353 -0.5 0.496078 0.0882353 -0.5 0.245098 0.0882353 -0.5 -0.00196075 0.0882353 -0.5 -0.252941 0.0882353 -0.5 -0.5 0.0882353 -0.252941 -0.5 0.0882353 -0.00196075 -0.5 0.0882353 0.245098 -0.5 0.0882353 0.496078 -0.5 0.0882353 0.496078 -0.252941 0.0882353 0.496078 -0.00196075 0.0882353 0.496078 0.245098 0.0882353 0.496078 0.496078 0.0882353 0.496078 0.496078 0.245098 0.245098 0.496078 0.245098 -0.00196075 0.496078 0.245098 -0.252941 0.496078 0.245098 -0.5 0.496078 0.245098 -0.5 0.245098 0.245098 -0.5 -0.00196075 0.245098 -0.5 -0.252941 0.245098 -0.5 -0.5 0.245098 -0.252941 -0.5 0.245098 -0.00196075 -0.5 0.245098 0.245098 -0.5 0.245098 0.496078 -0.5 0.245098 0.496078 -0.252941 0.245098 0.496078 -0.00196075 0.245098 0.496078 0.245098 0.245098 0.496078 0.496078 0.245098 0.496078 0.496078 0.339216 0.245098 0.496078 0.339216 -0.00196075 0.496078 0.339216 -0.252941 0.496078 0.339216 -0.5 0.496078 0.339216 -0.5 0.245098 0.339216 -0.5 -0.00196075 0.339216 -0.5 -0.252941 0.339216 -0.5 -0.5 0.339216 -0.252941 -0.5 0.339216 -0.00196075 -0.5 0.339216 0.245098 -0.5 0.339216 0.496078 -0.5 0.339216 0.496078 -0.252941 0.339216 0.496078 -0.00196075 0.339216 0.496078 0.245098 0.339216 0.496078 0.496078 0.339216 0.496078 0.496078 0.496078 0.245098 0.496078 0.496078 -0.00196075 0.496078 0.496078 -0.252941 0.496078 0.496078 -0.5 0.496078 0.496078 -0.5 0.245098 0.496078 -0.5 -0.00196075 0.496078 -0.5 -0.252941 0.496078 -0.5 -0.5 0.496078 -0.252941 -0.5 0.496078 -0.00196075 -0.5 0.496078 0.245098 -0.5 0.496078 0.496078 -0.5 0.496078 0.496078 -0.252941 0.496078 0.496078 -0.00196075 0.496078 0.496078 0.245098 0.496078 0.496078 0.496078 0.496078 0.370588 0.370588 0.496078 0.186275 0.370588 0.496078 -0.00196075 0.370588 0.496078 -0.190196 0.370588 0.496078 -0.378431 0.370588 0.496078 -0.378431 0.186275 0.496078 -0.378431 -0.00196075 0.496078 -0.378431 -0.190196 0.496078 -0.378431 -0.378431 0.496078 -0.190196 -0.378431 0.496078 -0.00196075 -0.378431 0.496078 0.186275 -0.378431 0.496078 0.370588 -0.378431 0.496078 0.370588 -0.190196 0.496078 0.370588 -0.00196075 0.496078 0.370588 0.186275 0.496078 0.370588 0.370588 0.496078 0.24902 0.24902 0.496078 0.123529 0.24902 0.496078 -0.00196075 0.24902 0.496078 -0.127451 0.24902 0.496078 -0.252941 0.245098 0.496078 -0.252941 0.123529 0.496078 -0.252941 -0.00196075 0.496078 -0.252941 -0.127451 0.496078 -0.252941 -0.252941 0.496078 -0.127451 -0.252941 0.496078 -0.00196075 -0.252941 0.496078 0.123529 -0.252941 0.496078 0.24902 -0.252941 0.496078 0.24902 -0.127451 0.496078 0.24902 -0.00196075 0.496078 0.24902 0.123529 0.496078 0.24902 0.24902 0.496078 0.123529 0.123529 0.496078 0.0607843 0.123529 0.496078 -0.00196075 0.123529 0.496078 -0.0647058 0.123529 0.496078 -0.127451 0.119608 0.496078 -0.127451 0.0607843 0.496078 -0.127451 -0.00196075 0.496078 -0.127451 -0.0647058 0.496078 -0.127451 -0.127451 0.496078 -0.0647058 -0.127451 0.496078 -0.00196075 -0.127451 0.496078 0.0607843 -0.127451 0.496078 0.123529 -0.127451 0.496078 0.123529 -0.0647058 0.496078 0.123529 -0.00196075 0.496078 0.123529 0.0607843 0.496078 0.123529 0.123529 0.496078 -0.00196075 -0.00196075 0.496078 -0.00196075 -0.00196075 0.496078 -0.00196075 -0.00196075 0.496078 -0.00196075 -0.00196075 0.496078 -0.00196075 -0.00196075 0.496078 -0.00196075 -0.00196075 0.496078 -0.00196075 -0.00196075 0.496078 -0.00196075 -0.00196075 0.496078 -0.00196075 -0.00196075 0.496078 -0.00196075 -0.00196075 0.496078 -0.00196075 -0.00196075 0.496078 -0.00196075 -0.00196075 0.496078 -0.00196075 -0.00196075 0.496078 -0.00196075 -0.00196075 0.496078 -0.00196075 -0.00196075 0.496078 -0.00196075 -0.00196075 0.496078 -0.00196075 -0.00196075 0.496078</float_array>
					<technique_common>
						<accessor count="289" source="#prim0-positions-array" stride="3">
							<param name="X" type="float"/>
							<param name="Y" type="float"/>
							<param name="Z" type="float"/>
						</accessor>
					</technique_common>
				</source>
				<source id="prim0-normals">
					<float_array id="prim0-normals-array" count="867">0 0 -0.999996 0 0 -0.999996 0 0 -0.999996 0 0 -0.999996 0 0 -0.999996 0 0 -0.999996 0 0 -0.999996 0 0 -0.999996 0 0 -0.999996 0 0 -0.999996 0 0 -0.999996 0 0 -0.999996 0 0 -0.999996 0 0 -0.999996 0 0 -0.999996 0 0 -0.999996 0 0 -0.999996 0 0 -1.00008 0 0 -1.00008 0 0 -1.00008 0 0 -0.999965 0 0 -1.00011 0 0 -0.9999 0 0 -1.00008 0 0 -1.00008 0 0 -1.00008 0 0 -1.00008 0 0 -1.00008 0 0 -1.00008 0 0 -1.00008 0 0 -1.00008 0 0 -1.00008 0 0 -1.00008 0 0 -1.00008 0 0 -0.999944 0 0 -0.999965 0 0 -0.999965 0 0 -0.999969 0 0 -0.999997 0 0 -0.999947 0 0 -1 0 0 -1 0 0 -1 0 0 -1 0 0 -1 0 0 -0.999968 0 0 -0.999856 0 0 -0.999965 0 0 -0.999965 0 0 -0.999944 0 0 -0.999944 0 0 -0.999964 0 0 -0.999931 0 0 -0.999997 0 0 -1 0 0 -1.00008 0 0 -0.999906 0 0 -0.99996 0 0 -1.00007 0 0 -1.00007 0 0 -0.99996 0 0 -1.00007 0 0 -0.999915 0 0 -0.999915 0 0 -0.999997 0 0 -1 0 0 -0.999908 0 0 -0.999964 0.195076 0.390152 -0.899866 0 0.54251 -0.840016 0 0.543231 -0.839664 0 0.539856 -0.841773 -0.392595 0.19323 -0.89917 -0.554717 0 -0.832076 -0.555414 0 -0.831667 -0.551975 0 -0.833773 -0.198158 -0.396316 -0.896429 0 -0.555414 -0.831667 0 -0.551975 -0.833773 0 -0.555414 -0.831667 0.393852 -0.200052 -0.897209 0.543231 0 -0.839665 0.539856 0 -0.841773 0.543231 0 -0.839665 0.195076 0.390152 -0.899866 0.854072 0.520108 0 0 1.00008 0 0 1.00008 0 0 1.00008 0 -0.526043 0.850321 0 -1.00008 0 0 -1.00008 0 0 -1.00008 0 0 -0.854158 -0.52016 0 0 -1.00008 0 0 -1.00008 0 0 -1.00008 0 0.514138 -0.85767 0 1.00008 0 0 1.00008 0 0 1.00008 0 0 0.854072 0.520108 0 0.857517 0.51451 0 0 0.999996 0 0 0.999965 0 0 0.999996 0 -0.520508 0.853958 0 -0.999996 0 0 -0.999965 0 0 -0.999996 0 0 -0.85744 -0.514464 0 0 -0.999965 0 0 -0.999996 0 0 -0.999966 0 0.50856 -0.861054 0 0.999965 0 0 0.999996 0 0 0.999966 0 0 0.857517 0.51451 0 0.857516 0.51451 0 0 0.999996 0 0 0.999965 0 0 0.999996 0 -0.520508 0.853958 0 -0.999996 0 0 -0.999965 0 0 -0.999996 0 0 -0.85744 -0.514464 0 0 -0.999965 0 0 -0.999996 0 0 -0.999965 0 0.50856 -0.861054 0 0.999965 0 0 0.999996 0 0 0.999965 0 0 0.857516 0.51451 0 0.888381 0.458899 0 0 1.0001 0 0 0.999885 0 0 1.0001 0 -0.464671 0.885501 0 -1.0001 0 0 -0.999885 0 0 -1.0001 0 0 -0.888501 -0.458961 0 0 -0.999885 0 0 -1.0001 0 0 -0.999885 0 0.453278 -0.891429 0 0.999885 0 0 1.0001 0 0 0.999885 0 0 0.888381 0.458899 0 0.788397 0.615188 0 0 1.00005 0 0 0.999903 0 0 1.00005 0 -0.621228 0.783696 0 -1.00005 0 0 -0.999903 0 0 -1.00005 0 0 -0.788318 -0.615127 0 0 -0.999903 0 0 -1.00005 0 0 -0.999903 0 0.609182 -0.793091 0 0.999903 0 0 1.00005 0 0 0.999903 0 0 0.788397 0.615188 0 0.902138 0.431457 0 0 1.00002 0 0 0.999907 0 0 1.00002 0 -0.43704 0.899532 0 -1.00002 0 0 -0.999907 0 0 -1.00002 0 0 -0.902143 -0.43146 0 0 -0.999907 0 0 -1.00002 0 0 -0.999907 0 0.425965 -0.904791 0 0.999907 0 0 1.00002 0 0 0.999907 0 0 0.902138 0.431457 0 0.79438 0.607467 0 0 1.0001 0 0 1.00006 0 0 1.0001 0 -0.613464 0.789688 0 -1.0001 0 0 -1.00006 0 0 -1.0001 0 0 -0.79432 -0.607421 0 0 -1.00006 0 0 -1.0001 0 0 -1.00006 0 0.601419 -0.798955 0 1.00006 0 0 1.0001 0 0 1.00006 0 0 0.79438 0.607467 0 0.857055 0.214264 0.468702 0 0.915623 0.401841 0 0.914225 0.405037 0 0.915623 0.401841 -0.217993 0.858348 0.464683 -0.920222 0 0.391238 -0.918971 0 0.394416 -0.920222 0 0.391239 -0.861073 -0.215268 0.460776 0 -0.918971 0.394416 0 -0.920222 0.391238 0 -0.91973 0.392486 0.211597 -0.859823 0.464842 0.914225 0 0.405037 0.915623 0 0.401841 0.915174 0 0.40314 0.857055 0.214264 0.468702 0 0 1.00002 0 0 0.999956 0 0 0.999959 0 0 0.999973 0 0 1.00009 0 0 0.999977 0 0 0.99993 0 0 1.00001 0 0 0.99993 0 0 0.99993 0 0 1.00001 0 0 1.00009 0 0 1.00001 0 0 0.999959 0 0 1.00009 0 0 1.00005 0 0 1.00002 0 0 1.00001 0 0 1.00001 0 0 0.999929 0 0 0.999977 0 0 1.00009 0 0 1.0001 0 0 1 0 0 1 0 0 1 0 0 1 0 0 1 0 0 1 0 0 1.00009 0 0 0.999929 0 0 0.999929 0 0 0.999929 0 0 1.00001 0 0 1 0 0 1 0 0 1 0 0 0.999976 0 0 0.999928 0 0 1.00001 0 0 1 0 0 1 0 0 1 0 0 1 0 0 1 0 0 1 0 0 1 0 0 1 0 0 1 0 0 1 0 0 1 0 0 0.999996 0 0 0.999996 0 0 0.999996 0 0 0.999996 0 0 0.999996 0 0 0.999996 0 0 0.999996 0 0 0.999996 0 0 0.999996 0 0 0.999996 0 0 0.999996 0 0 0.999996 0 0 0.999996 0 0 0.999996 0 0 0.999996 0 0 0.999996 0 0 0.999996</float_array>
					<technique_common>
						<accessor count="289" source="#prim0-normals-array" stride="3">
							<param name="X" type="float"/>
							<param name="Y" type="float"/>
							<param name="Z" type="float"/>
						</accessor>
					</technique_common>
				</source>
				<source id="unified-map0">
					<float_array id="unified-map0-array" count="578">0 0 0.0625 0 0.125 0 0.1875 0 0.25 0 0.3125 0 0.375 0 0.4375 0 0.5 0 0.5625 0 0.625 0 0.6875 0 0.75 0 0.8125 0 0.875 0 0.9375 0 1 0 0 0.0625 0.0625 0.0625 0.125 0.0625 0.1875 0.0625 0.25 0.0625 0.3125 0.0625 0.375 0.0625 0.4375 0.0625 0.5 0.0625 0.5625 0.0625 0.625 0.0625 0.6875 0.0625 0.75 0.0625 0.8125 0.0625 0.875 0.0625 0.9375 0.0625 1 0.0625 0 0.125 0.0625 0.125 0.125 0.125 0.1875 0.125 0.25 0.125 0.3125 0.125 0.375 0.125 0.4375 0.125 0.5 0.125 0.5625 0.125 0.625 0.125 0.6875 0.125 0.75 0.125 0.8125 0.125 0.875 0.125 0.9375 0.125 1 0.125 0 0.1875 0.0625 0.1875 0.125 0.1875 0.1875 0.1875 0.25 0.1875 0.3125 0.1875 0.375 0.1875 0.4375 0.1875 0.5 0.1875 0.5625 0.1875 0.625 0.1875 0.6875 0.1875 0.75 0.1875 0.8125 0.1875 0.875 0.1875 0.9375 0.1875 1 0.1875 0 0.25 0.0625 0.25 0.125 0.25 0.1875 0.25 0.25 0.25 0.3125 0.25 0.375 0.25 0.4375 0.25 0.5 0.25 0.5625 0.25 0.625 0.25 0.6875 0.25 0.75 0.25 0.8125 0.25 0.875 0.25 0.9375 0.25 1 0.25 0 0.3125 0.0625 0.3125 0.125 0.3125 0.1875 0.3125 0.25 0.3125 0.3125 0.3125 0.375 0.3125 0.4375 0.3125 0.5 0.3125 0.5625 0.3125 0.625 0.3125 0.6875 0.3125 0.75 0.3125 0.8125 0.3125 0.875 0.3125 0.9375 0.3125 1 0.3125 0 0.375 0.0625 0.375 0.125 0.375 0.1875 0.375 0.25 0.375 0.3125 0.375 0.375 0.375 0.4375 0.375 0.5 0.375 0.5625 0.375 0.625 0.375 0.6875 0.375 0.75 0.375 0.8125 0.375 0.875 0.375 0.9375 0.375 1 0.375 0 0.4375 0.0625 0.4375 0.125 0.4375 0.1875 0.4375 0.25 0.4375 0.3125 0.4375 0.375 0.4375 0.4375 0.4375 0.5 0.4375 0.5625 0.4375 0.625 0.4375 0.6875 0.4375 0.75 0.4375 0.8125 0.4375 0.875 0.4375 0.9375 0.4375 1 0.4375 0 0.5 0.0625 0.5 0.125 0.5 0.1875 0.5 0.25 0.5 0.3125 0.5 0.375 0.5 0.4375 0.5 0.5 0.5 0.5625 0.5 0.625 0.5 0.6875 0.5 0.75 0.5 0.8125 0.5 0.875 0.5 0.9375 0.5 1 0.5 0 0.5625 0.0625 0.5625 0.125 0.5625 0.1875 0.5625 0.25 0.5625 0.3125 0.5625 0.375 0.5625 0.4375 0.5625 0.5 0.5625 0.5625 0.5625 0.625 0.5625 0.6875 0.5625 0.75 0.5625 0.8125 0.5625 0.875 0.5625 0.9375 0.5625 1 0.5625 0 0.625 0.0625 0.625 0.125 0.625 0.1875 0.625 0.25 0.625 0.3125 0.625 0.375 0.625 0.4375 0.625 0.5 0.625 0.5625 0.625 0.625 0.625 0.6875 0.625 0.75 0.625 0.8125 0.625 0.875 0.625 0.9375 0.625 1 0.625 0 0.6875 0.0625 0.6875 0.125 0.6875 0.1875 0.6875 0.25 0.6875 0.3125 0.6875 0.375 0.6875 0.4375 0.6875 0.5 0.6875 0.5625 0.6875 0.625 0.6875 0.6875 0.6875 0.75 0.6875 0.8125 0.6875 0.875 0.6875 0.9375 0.6875 1 0.6875 0 0.75 0.0625 0.75 0.125 0.75 0.1875 0.75 0.25 0.75 0.3125 0.75 0.375 0.75 0.4375 0.75 0.5 0.75 0.5625 0.75 0.625 0.75 0.6875 0.75 0.75 0.75 0.8125 0.75 0.875 0.75 0.9375 0.75 1 0.75 0 0.8125 0.0625 0.8125 0.125 0.8125 0.1875 0.8125 0.25 0.8125 0.3125 0.8125 0.375 0.8125 0.4375 0.8125 0.5 0.8125 0.5625 0.8125 0.625 0.8125 0.6875 0.8125 0.75 0.8125 0.8125 0.8125 0.875 0.8125 0.9375 0.8125 1 0.8125 0 0.875 0.0625 0.875 0.125 0.875 0.1875 0.875 0.25 0.875 0.3125 0.875 0.375 0.875 0.4375 0.875 0.5 0.875 0.5625 0.875 0.625 0.875 0.6875 0.875 0.75 0.875 0.8125 0.875 0.875 0.875 0.9375 0.875 1 0.875 0 0.9375 0.0625 0.9375 0.125 0.9375 0.1875 0.9375 0.25 0.9375 0.3125 0.9375 0.375 0.9375 0.4375 0.9375 0.5 0.9375 0.5625 0.9375 0.625 0.9375 0.6875 0.9375 0.75 0.9375 0.8125 0.9375 0.875 0.9375 0.9375 0.9375 1 0.9375 0 1 0.0625 1 0.125 1 0.1875 1 0.25 1 0.3125 1 0.375 1 0.4375 1 0.5 1 0.5625 1 0.625 1 0.6875 1 0.75 1 0.8125 1 0.875 1 0.9375 1 1 1</float_array>
					<technique_common>
						<accessor count="289" source="#unified-map0-array" stride="2">
							<param name="S" type="float"/>
							<param name="T" type="float"/>
						</accessor>
					</technique_common>
				</source>
				<vertices id="prim0-vertices">
					<input semantic="POSITION" source="#prim0-positions"/>
				</vertices>
				<polylist count="512" material="Material0-material">
					<input offset="0" semantic="VERTEX" source="#prim0-vertices" set="0"/>
					<input offset="0" semantic="NORMAL" source="#prim0-normals" set="0"/>
					<input offset="0" semantic="TEXCOORD" source="#unified-map0" set="0"/>
					<vcount>3 3 3 3 3 3 3 3 3 3 3 3 3 3 3 3 3 3 3 3 3 3 3 3 3 3 3 3 3 3 3 3 3 3 3 3 3 3 3 3 3 3 3 3 3 3 3 3 3 3 3 3 3 3 3 3 3 3 3 3 3 3 3 3 3 3 3 3 3 3 3 3 3 3 3 3 3 3 3 3 3 3 3 3 3 3 3 3 3 3 3 3 3 3 3 3 3 3 3 3 3 3 3 3 3 3 3 3 3 3 3 3 3 3 3 3 3 3 3 3 3 3 3 3 3 3 3 3 3 3 3 3 3 3 3 3 3 3 3 3 3 3 3 3 3 3 3 3 3 3 3 3 3 3 3 3 3 3 3 3 3 3 3 3 3 3 3 3 3 3 3 3 3 3 3 3 3 3 3 3 3 3 3 3 3 3 3 3 3 3 3 3 3 3 3 3 3 3 3 3 3 3 3 3 3 3 3 3 3 3 3 3 3 3 3 3 3 3 3 3 3 3 3 3 3 3 3 3 3 3 3 3 3 3 3 3 3 3 3 3 3 3 3 3 3 3 3 3 3 3 3 3 3 3 3 3 3 3 3 3 3 3 3 3 3 3 3 3 3 3 3 3 3 3 3 3 3 3 3 3 3 3 3 3 3 3 3 3 3 3 3 3 3 3 3 3 3 3 3 3 3 3 3 3 3 3 3 3 3 3 3 3 3 3 3 3 3 3 3 3 3 3 3 3 3 3 3 3 3 3 3 3 3 3 3 3 3 3 3 3 3 3 3 3 3 3 3 3 3 3 3 3 3 3 3 3 3 3 3 3 3 3 3 3 3 3 3 3 3 3 3 3 3 3 3 3 3 3 3 3 3 3 3 3 3 3 3 3 3 3 3 3 3 3 3 3 3 3 3 3 3 3 3 3 3 3 3 3 3 3 3 3 3 3 3 3 3 3 3 3 3 3 3 3 3 3 3 3 3 3 3 3 3 3 3 3 3 3 3 3 3 3 3 3 3 3 3 3 3 3 3 3 3 3 3 3 3 3 3 3 3 3 3 3 3 3 3 3 3 3 3 3 3 3 3 3 3 3 3 3 3 3 3 3 3 3 3 3 3 3 3 3 3 3 3 3 3 3 3 3 3 3 3 3 3 3 3 3 3 3 3 3</vcount>
					<p>0 18 17 0 1 18 1 19 18 1 2 19 2 20 19 2 3 20 3 21 20 3 4 21 4 22 21 4 5 22 5 23 22 5 6 23 6 24 23 6 7 24 7 25 24 7 8 25 8 26 25 8 9 26 9 27 26 9 10 27 10 28 27 10 11 28 11 29 28 11 12 29 12 30 29 12 13 30 13 31 30 13 14 31 14 32 31 14 15 32 15 33 32 15 16 33 17 35 34 17 18 35 18 36 35 18 19 36 19 37 36 19 20 37 20 38 37 20 21 38 21 39 38 21 22 39 22 40 39 22 23 40 23 41 40 23 24 41 24 42 41 24 25 42 25 43 42 25 26 43 26 44 43 26 27 44 27 45 44 27 28 45 28 46 45 28 29 46 29 47 46 29 30 47 30 48 47 30 31 48 31 49 48 31 32 49 32 50 49 32 33 50 34 52 51 34 35 52 35 53 52 35 36 53 36 54 53 36 37 54 37 55 54 37 38 55 38 56 55 38 39 56 39 57 56 39 40 57 40 58 57 40 41 58 41 59 58 41 42 59 42 60 59 42 43 60 43 61 60 43 44 61 44 62 61 44 45 62 45 63 62 45 46 63 46 64 63 46 47 64 47 65 64 47 48 65 48 66 65 48 49 66 49 67 66 49 50 67 51 69 68 51 52 69 52 70 69 52 53 70 53 71 70 53 54 71 54 72 71 54 55 72 55 73 72 55 56 73 56 74 73 56 57 74 57 75 74 57 58 75 58 76 75 58 59 76 59 77 76 59 60 77 60 78 77 60 61 78 61 79 78 61 62 79 62 80 79 62 63 80 63 81 80 63 64 81 64 82 81 64 65 82 65 83 82 65 66 83 66 84 83 66 67 84 68 86 85 68 69 86 69 87 86 69 70 87 70 88 87 70 71 88 71 89 88 71 72 89 72 90 89 72 73 90 73 91 90 73 74 91 74 92 91 74 75 92 75 93 92 75 76 93 76 94 93 76 77 94 77 95 94 77 78 95 78 96 95 78 79 96 79 97 96 79 80 97 80 98 97 80 81 98 81 99 98 81 82 99 82 100 99 82 83 100 83 101 100 83 84 101 85 103 102 85 86 103 86 104 103 86 87 104 87 105 104 87 88 105 88 106 105 88 89 106 89 107 106 89 90 107 90 108 107 90 91 108 91 109 108 91 92 109 92 110 109 92 93 110 93 111 110 93 94 111 94 112 111 94 95 112 95 113 112 95 96 113 96 114 113 96 97 114 97 115 114 97 98 115 98 116 115 98 99 116 99 117 116 99 100 117 100 118 117 100 101 118 102 120 119 102 103 120 103 121 120 103 104 121 104 122 121 104 105 122 105 123 122 105 106 123 106 124 123 106 107 124 107 125 124 107 108 125 108 126 125 108 109 126 109 127 126 109 110 127 110 128 127 110 111 128 111 129 128 111 112 129 112 130 129 112 113 130 113 131 130 113 114 131 114 132 131 114 115 132 115 133 132 115 116 133 116 134 133 116 117 134 117 135 134 117 118 135 119 137 136 119 120 137 120 138 137 120 121 138 121 139 138 121 122 139 122 140 139 122 123 140 123 141 140 123 124 141 124 142 141 124 125 142 125 143 142 125 126 143 126 144 143 126 127 144 127 145 144 127 128 145 128 146 145 128 129 146 129 147 146 129 130 147 130 148 147 130 131 148 131 149 148 131 132 149 132 150 149 132 133 150 133 151 150 133 134 151 134 152 151 134 135 152 136 154 153 136 137 154 137 155 154 137 138 155 138 156 155 138 139 156 139 157 156 139 140 157 140 158 157 140 141 158 141 159 158 141 142 159 142 160 159 142 143 160 143 161 160 143 144 161 144 162 161 144 145 162 145 163 162 145 146 163 146 164 163 146 147 164 147 165 164 147 148 165 148 166 165 148 149 166 149 167 166 149 150 167 150 168 167 150 151 168 151 169 168 151 152 169 153 171 170 153 154 171 154 172 171 154 155 172 155 173 172 155 156 173 156 174 173 156 157 174 157 175 174 157 158 175 158 176 175 158 159 176 159 177 176 159 160 177 160 178 177 160 161 178 161 179 178 161 162 179 162 180 179 162 163 180 163 181 180 163 164 181 164 182 181 164 165 182 165 183 182 165 166 183 166 184 183 166 167 184 167 185 184 167 168 185 168 186 185 168 169 186 170 188 187 170 171 188 171 189 188 171 172 189 172 190 189 172 173 190 173 191 190 173 174 191 174 192 191 174 175 192 175 193 192 175 176 193 176 194 193 176 177 194 177 195 194 177 178 195 178 196 195 178 179 196 179 197 196 179 180 197 180 198 197 180 181 198 181 199 198 181 182 199 182 200 199 182 183 200 183 201 200 183 184 201 184 202 201 184 185 202 185 203 202 185 186 203 187 205 204 187 188 205 188 206 205 188 189 206 189 207 206 189 190 207 190 208 207 190 191 208 191 209 208 191 192 209 192 210 209 192 193 210 193 211 210 193 194 211 194 212 211 194 195 212 195 213 212 195 196 213 196 214 213 196 197 214 197 215 214 197 198 215 198 216 215 198 199 216 199 217 216 199 200 217 200 218 217 200 201 218 201 219 218 201 202 219 202 220 219 202 203 220 204 222 221 204 205 222 205 223 222 205 206 223 206 224 223 206 207 224 207 225 224 207 208 225 208 226 225 208 209 226 209 227 226 209 210 227 210 228 227 210 211 228 211 229 228 211 212 229 212 230 229 212 213 230 213 231 230 213 214 231 214 232 231 214 215 232 215 233 232 215 216 233 216 234 233 216 217 234 217 235 234 217 218 235 218 236 235 218 219 236 219 237 236 219 220 237 221 239 238 221 222 239 222 240 239 222 223 240 223 241 240 223 224 241 224 242 241 224 225 242 225 243 242 225 226 243 226 244 243 226 227 244 227 245 244 227 228 245 228 246 245 228 229 246 229 247 246 229 230 247 230 248 247 230 231 248 231 249 248 231 232 249 232 250 249 232 233 250 233 251 250 233 234 251 234 252 251 234 235 252 235 253 252 235 236 253 236 254 253 236 237 254 238 256 255 238 239 256 239 257 256 239 240 257 240 258 257 240 241 258 241 259 258 241 242 259 242 260 259 242 243 260 243 261 260 243 244 261 244 262 261 244 245 262 245 263 262 245 246 263 246 264 263 246 247 264 247 265 264 247 248 265 248 266 265 248 249 266 249 267 266 249 250 267 250 268 267 250 251 268 251 269 268 251 252 269 252 270 269 252 253 270 253 271 270 253 254 271 255 273 272 255 256 273 256 274 273 256 257 274 257 275 274 257 258 275 258 276 275 258 259 276 259 277 276 259 260 277 260 278 277 260 261 278 261 279 278 261 262 279 262 280 279 262 263 280 263 281 280 263 264 281 264 282 281 264 265 282 265 283 282 265 266 283 266 284 283 266 267 284 267 285 284 267 268 285 268 286 285 268 269 286 269 287 286 269 270 287 270 288 287 270 271 288</p>
				</polylist>
			</mesh>
		</geometry>
	</library_geometries>
	<library_effects>
		<effect id="Material0-fx">
			<profile_COMMON>
				<technique sid="common">
					<phong>
						<diffuse>
							<color sid="diffuse">1 1 1 1</color>
						</diffuse>
						<transparency>
							<float>1</float>
						</transparency>
					</phong>
				</technique>
			</profile_COMMON>
		</effect>
	</library_effects>
	<library_materials>
		<material id="Material0-material">
			<instance_effect url="#Material0-fx"/>
		</material>
	</library_materials>
	<library_visual_scenes>
		<visual_scene id="Scene" name="Scene">
			<node id="prim0" name="prim0">
				<matrix>0.5 0 0 0 0 0.5 0 0 0 0 0.5 0 0 0 0 1</matrix>
				<instance_geometry url="#prim0-mesh">
					<bind_material>
						<technique_common>
							<instance_material symbol="Material0-material" target="#Material0-material"/>
						</technique_common>
					</bind_material>
				</instance_geometry>
			</node>
		</visual_scene>
	</library_visual_scenes>
	<scene>
		<instance_visual_scene url="#Scene"/>
	</scene>
</COLLADA>
